HIERARCHY
ROOT Hips
{
	OFFSET -3.958830 18.904000 13.208200
	CHANNELS 6 Xposition Yposition Zposition Zrotation Yrotation Xrotation 
	JOINT LHipJoint
	{
		OFFSET 0.000000 0.000000 0.000000
		CHANNELS 3 Zrotation Yrotation Xrotation
		JOINT LeftUpLeg
		{
			OFFSET 1.800000 -1.400000 0.085000
			CHANNELS 3 Zrotation Yrotation Xrotation
			JOINT LeftLeg
			{
				OFFSET 2.215000 -6.000000 0.000000
				CHANNELS 3 Zrotation Yrotation Xrotation
				JOINT LeftFoot
				{
					OFFSET 2.500000 -6.900000 0.000000
					CHANNELS 3 Zrotation Yrotation Xrotation
					JOINT LeftToeBase
					{
						OFFSET 0.200000 -0.500000 1.950000
						CHANNELS 3 Zrotation Yrotation Xrotation
						End Site
						{
							OFFSET 0.000000 0.000000 0.000000
						}
					}
				}
			}
		}
	}
	JOINT RHipJoint
	{
		OFFSET 0.000000 0.000000 0.000000
		CHANNELS 3 Zrotation Yrotation Xrotation
		JOINT RightUpLeg
		{
			OFFSET -1.800000 -1.400000 0.085000
			CHANNELS 3 Zrotation Yrotation Xrotation
			JOINT RightLeg
			{
				OFFSET -2.215000 -6.000000 0.000000
				CHANNELS 3 Zrotation Yrotation Xrotation
				JOINT RightFoot
				{
					OFFSET -2.500000 -6.900000 0.000000
					CHANNELS 3 Zrotation Yrotation Xrotation
					JOINT RightToeBase
					{
						OFFSET -0.200000 -0.500000 1.950000
						CHANNELS 3 Zrotation Yrotation Xrotation
						End Site
						{
							OFFSET 0.000000 0.000000 0.000000
						}
					}
				}
			}
		}
	}
	JOINT LowerBack
	{
		OFFSET 0.000000 0.000000 0.000000
		CHANNELS 3 Zrotation Yrotation Xrotation
		JOINT Spine
		{
			OFFSET -0.087000 1.940000 -0.288900
			CHANNELS 3 Zrotation Yrotation Xrotation
			JOINT Spine1
			{
				OFFSET 0.000000 1.950000 0.060000
				CHANNELS 3 Zrotation Yrotation Xrotation
				JOINT Neck
				{
					OFFSET 0.000000 0.000000 0.000000
					CHANNELS 3 Zrotation Yrotation Xrotation
					JOINT Neck1
					{
						OFFSET 0.000000 1.600000 0.340000
						CHANNELS 3 Zrotation Yrotation Xrotation
						JOINT Head
						{
							OFFSET 0.000000 1.667000 -0.240000
							CHANNELS 3 Zrotation Yrotation Xrotation
							End Site
							{
								OFFSET 0.000000 0.000000 0.000000
							}
						}
					}
				}
				JOINT LeftShoulder
				{
					OFFSET 0.000000 0.000000 0.000000
					CHANNELS 3 Zrotation Yrotation Xrotation
					JOINT LeftArm
					{
						OFFSET 2.700000 1.550000 -0.730000
						CHANNELS 3 Zrotation Yrotation Xrotation
						JOINT LeftForeArm
						{
							OFFSET 5.450000 0.000000 0.000000
							CHANNELS 3 Zrotation Yrotation Xrotation
							JOINT LeftHand
							{
								OFFSET 3.450000 0.000000 0.000000
								CHANNELS 3 Zrotation Yrotation Xrotation
								JOINT LeftHandIndex1
								{
									OFFSET 0.750000 0.000000 0.000000
									CHANNELS 3 Zrotation Yrotation Xrotation
									End Site
									{
										OFFSET 0.000000 0.000000 0.000000
									}
								}
							}
						}
					}
				}
				JOINT RightShoulder
				{
					OFFSET 0.000000 0.000000 0.000000
					CHANNELS 3 Zrotation Yrotation Xrotation
					JOINT RightArm
					{
						OFFSET -2.700000 1.550000 -0.730000
						CHANNELS 3 Zrotation Yrotation Xrotation
						JOINT RightForeArm
						{
							OFFSET -5.450000 0.000000 0.000000
							CHANNELS 3 Zrotation Yrotation Xrotation
							JOINT RightHand
							{
								OFFSET -3.450000 0.000000 0.000000
								CHANNELS 3 Zrotation Yrotation Xrotation
								JOINT RightHandIndex1
								{
									OFFSET -0.750000 0.000000 0.000000
									CHANNELS 3 Zrotation Yrotation Xrotation
									End Site
									{
										OFFSET 0.000000 0.000000 0.000000
									}
								}
							}
						}
					}
				}
			}
		}
	}
}
MOTION
Frames: 14
Frame Time: 0.016667
14.165500 17.714470 -26.641050 25.205505 -60.605329 -32.823916 -15.979306 8.055006 8.470586 34.095523 17.143187 -66.395892 -10.762093 16.144012 26.421606 0.253328 10.069650 0.612032 0.898510 1.083920 0.485150 18.417306 -8.768347 1.799920 -15.055428 1.107647 13.403780 3.562559 -4.988660 0.511467 -1.098745 -5.755275 2.276866 0.591090 -0.062230 0.234660 -4.039521 1.047696 -10.284108 0.014023 9.752032 19.863449 -13.049972 15.536032 7.046169 2.040956 -10.969553 -16.884088 -19.951477 20.581048 23.392716 0.086130 16.108430 -16.624600 -12.685745 -32.109183 7.079457 9.005351 -5.233349 -12.346968 46.232539 -31.646930 -12.811102 -3.656757 3.539402 0.240400 -0.033980 0.270430 0.307120 10.436302 47.110222 3.891490 -7.445590 27.916098 -10.937469 -23.508929 30.089103 -6.663681 2.564492 -2.034577 0.140180 0.005860 -0.356680 0.026270 
14.169830 17.727960 -26.641070 23.691655 -59.999411 -31.643813 -15.955053 8.125493 8.361002 33.084641 16.265965 -66.027047 -10.146615 15.079179 24.381853 0.250178 9.558871 0.752450 0.953830 1.207160 0.482800 18.393181 -8.883788 1.917732 -14.871606 0.969743 13.695433 4.299714 -5.070663 0.264370 -1.146743 -5.793152 2.282256 0.621220 -0.106160 0.243960 -4.314232 1.283668 -10.256965 1.360910 9.144264 20.411326 -13.873628 15.419379 7.282438 1.884314 -11.313040 -16.923745 -20.669232 20.181938 23.770499 0.119710 15.471490 -18.148680 -12.147007 -32.493343 7.329045 8.624509 -5.374375 -12.464806 45.703931 -31.043680 -12.499649 -3.618218 3.571464 0.203720 -0.060480 0.331490 0.338590 10.060512 47.576741 3.064623 -6.606013 28.403756 -10.681027 -23.314006 26.462219 -6.331761 2.639101 -2.013217 0.221210 -0.002240 -0.402250 0.078730 
14.148200 17.723780 -26.677470 21.497854 -57.019472 -28.926876 -15.952022 8.344663 8.182477 31.090715 13.646624 -65.177021 -9.996489 11.415951 13.561398 0.086290 8.044525 1.355558 0.884650 1.098490 0.491270 18.346990 -8.946483 1.972553 -13.540006 0.338800 13.727144 3.423137 -4.897204 0.014864 -1.081577 -5.705669 2.344622 0.602310 -0.050190 0.165170 -4.020557 0.650912 -10.139921 -0.877112 8.640572 19.471401 -12.843220 14.322993 8.320796 2.136108 -10.989407 -17.429139 -20.091917 19.589132 23.956602 -0.831120 15.427830 -16.166330 -11.615066 -33.109753 7.921783 7.648540 -4.390065 -12.620590 44.635306 -29.236393 -11.674374 -3.681523 3.523538 0.210820 -0.031990 0.265970 0.338950 9.404432 48.026479 3.002082 -4.973651 28.253722 -10.352556 -22.735655 24.927173 -6.194077 2.648742 -1.982799 0.111110 0.062420 -0.415660 0.045870 
14.124950 17.704380 -26.703850 23.310638 -56.041803 -29.025203 -15.987995 8.226065 8.300701 31.375629 13.723511 -65.667034 -11.347315 10.882478 10.680469 0.014857 8.030491 1.396590 0.885220 1.094340 0.519020 18.347399 -8.845161 1.851910 -14.513131 0.826055 12.610886 3.697640 -4.871561 0.319550 -1.039029 -5.617668 2.375387 0.650770 0.000250 0.132920 -3.844623 0.477080 -10.111987 -3.893793 9.385801 17.915051 -12.256759 14.402040 8.401128 1.236736 -10.664851 -16.674527 -19.316898 20.025677 22.918648 -0.704050 15.504830 -17.413600 -11.905310 -32.942870 7.847236 8.646779 -4.403883 -11.811675 41.049840 -27.201252 -9.842886 -3.742764 3.398395 0.235480 -0.004320 0.243940 0.329050 11.393588 47.444642 3.044347 -2.988399 29.712322 -9.888264 -24.102857 22.204099 -6.445820 2.598432 -1.884149 0.040170 0.172090 -0.387680 0.012230 
14.158920 17.737300 -26.701650 15.743314 -48.753459 -23.314031 -15.712811 9.061091 7.480411 22.795430 5.049788 -64.679036 -5.430623 5.580662 -1.871552 -0.419405 4.987955 2.602765 0.689390 0.835230 0.446650 18.361879 -9.335216 2.267611 -11.371656 -0.746474 14.106897 3.807727 -5.082638 0.369956 -1.061751 -5.554642 2.450599 0.576930 0.128840 0.030150 -4.199367 -0.130460 -9.765735 -1.279035 5.110228 20.631158 -13.699007 11.416936 10.211542 1.340923 -10.938919 -18.257021 -21.107064 19.214620 22.846599 -2.134310 13.934160 -21.271790 -10.548312 -34.271041 8.114681 5.874817 -4.761980 -13.005347 43.177271 -24.352484 -10.545253 -3.954303 3.061503 0.396310 0.001590 0.203890 0.265920 9.823647 46.959303 4.466084 -2.553645 28.108932 -10.986949 -26.023961 20.908595 -6.576908 2.462346 -1.584509 -0.177040 0.464740 -0.206280 -0.064770 
14.135830 17.726470 -26.629030 14.489295 -51.473969 -21.740371 -15.729999 8.806795 7.559209 23.865777 6.699464 -59.950719 -4.817427 4.366780 -11.815679 -0.316361 5.264181 2.540888 0.715810 0.893140 0.429800 18.366727 -9.361035 2.214013 -10.878856 -0.807624 13.312465 4.296734 -5.092903 0.642686 -1.037000 -5.564650 2.456213 0.642400 0.185680 0.031940 -4.598838 0.368187 -9.886995 3.043863 5.542509 18.385691 -14.559853 12.863064 12.232004 1.335255 -11.450628 -18.339767 -22.026850 18.953341 22.771870 -1.893660 13.339230 -19.541940 -12.075657 -34.866834 8.510331 3.368771 -5.278501 -13.125751 44.597332 -22.690879 -10.990123 -4.026036 3.094421 0.327090 0.062150 0.163510 0.290730 11.043746 47.806763 3.854441 -2.522295 27.670704 -9.214811 -19.643402 17.324504 -4.653477 2.474543 -1.593015 -0.178150 0.496500 -0.205780 -0.041860 
14.169420 17.709790 -26.606920 12.938740 -48.562862 -18.850391 -15.694047 8.886673 7.566553 21.268118 3.517185 -61.520422 -5.350587 2.919055 -15.716583 -0.133184 4.416956 2.747862 0.914150 1.169950 0.476470 18.384079 -9.270600 2.214586 -10.362922 -0.815271 12.117051 5.174494 -4.947608 0.579584 -1.057219 -5.489644 2.412203 0.677700 -0.012260 0.146730 -4.432929 -0.149498 -9.852710 2.687121 4.265628 17.635708 -14.906247 11.208224 12.141269 1.710753 -10.928890 -18.971453 -21.828868 19.383653 22.832189 -0.422080 13.711810 -18.133610 -12.139228 -34.315145 8.716136 1.434202 -5.537561 -12.633064 42.667082 -22.442628 -10.109062 -3.826514 3.526418 0.214640 -0.028650 0.276800 0.355720 10.365788 46.257268 4.850574 0.215392 29.657034 -7.729746 -22.256956 14.577604 -5.126140 2.625511 -1.836035 0.092040 0.176620 -0.389730 0.063830 
14.142950 17.680020 -26.629980 13.537412 -47.575336 -18.253063 -15.823080 8.761360 7.746570 21.318535 2.929349 -62.110564 -8.718994 1.829495 -19.057891 -0.289184 4.778906 2.707697 0.841600 1.076720 0.525990 18.335201 -8.991795 2.009918 -10.434599 -0.698891 11.435419 5.217894 -4.959459 0.883102 -1.010848 -5.348692 2.492505 0.736170 0.092460 0.074390 -3.959647 -0.633984 -9.777215 -0.724839 4.940421 16.245926 -13.180461 11.171461 13.336081 1.160302 -10.539303 -17.618965 -20.378379 19.010259 20.917202 -3.572250 13.882710 -21.820790 -10.812591 -32.696554 8.237227 -0.345960 -6.527854 -11.902083 42.151352 -21.153387 -9.952378 -3.945820 3.150746 0.303240 0.049620 0.247750 0.311330 9.957758 44.515509 4.917908 1.719967 31.246101 -6.621062 -22.098958 12.873700 -4.965408 2.469041 -1.624444 -0.101900 0.443180 -0.292860 -0.035430 
14.126250 17.673270 -26.560420 14.345607 -47.475655 -18.097737 -15.799134 9.043691 7.408053 20.771232 3.088864 -64.873769 -8.766565 4.122604 -6.724748 -0.637245 4.837661 2.675921 0.849000 1.072050 0.527250 18.345909 -9.038231 2.099657 -11.327417 -0.034073 11.235718 5.341315 -4.837675 0.466846 -0.961003 -5.422362 2.455193 0.848430 0.223800 0.038480 -4.026503 -0.863713 -9.512513 0.017320 4.342110 14.001468 -14.042673 11.711373 16.809626 0.750264 -11.037808 -18.750214 -21.524667 19.005786 18.514226 -3.119090 12.451350 -20.815600 -7.944789 -32.806493 9.754318 -8.182574 -3.375901 -13.463786 48.587094 -18.103860 -11.957043 -4.128309 3.138572 0.301310 0.137740 0.154810 0.311340 8.139934 44.565114 5.155735 3.290475 31.988437 -6.559457 -23.174084 10.706415 -5.289612 2.387609 -1.642491 -0.227930 0.602150 -0.227740 -0.066000 
14.131380 17.644920 -26.585840 13.606954 -46.743153 -17.849178 -15.823397 9.452749 7.184507 15.996611 -0.008248 -69.973577 -4.414633 5.066277 0.953355 -0.793616 4.072373 2.946375 0.791890 0.991090 0.566190 18.280907 -9.141479 2.046171 -10.973977 -0.189504 10.493329 5.576890 -5.105462 2.425295 -0.906132 -5.293503 2.503893 0.789770 0.193760 0.049850 -3.568721 -1.276391 -9.232416 -2.397868 4.962118 14.626258 -11.733155 10.934977 16.276438 1.113574 -10.424413 -17.591708 -19.893277 18.424599 19.280600 -6.192970 13.462700 -21.709640 -9.040735 -29.976559 8.409686 -10.389410 -6.797558 -11.930523 47.404566 -16.883282 -11.078560 -4.059877 3.017254 0.334670 0.150570 0.183330 0.275820 8.323601 41.824205 6.836472 7.068667 33.181289 -5.575228 -24.402884 11.653116 -5.701551 2.306540 -1.604115 -0.250910 0.585590 -0.223790 -0.107560 
14.078640 17.589450 -26.508570 15.162715 -51.030474 -17.471513 -15.851727 9.686165 6.822282 15.293384 1.824000 -69.794704 1.917932 6.211920 7.616338 -0.729157 4.289164 2.811056 0.876710 1.128060 0.543180 18.228254 -9.327967 1.989836 -11.921765 0.378536 8.312565 5.452540 -4.970895 3.090971 -0.856175 -5.163124 2.544382 0.850040 0.187100 0.079830 -3.595092 -0.911675 -8.953145 -2.864013 7.397990 11.794728 -10.282089 12.477396 14.009685 0.480569 -10.803940 -15.911555 -20.027281 18.813521 18.218351 -4.397280 13.375670 -20.975140 -12.139481 -27.020750 7.274321 -12.935901 -8.473799 -10.416756 47.984917 -19.427127 -11.836103 -3.909343 3.064843 0.264560 0.155220 0.188620 0.328130 12.582099 39.848901 7.100975 9.773692 34.610028 -2.567522 -21.242652 10.460003 -4.861440 2.341986 -1.618200 -0.169370 0.533290 -0.271070 -0.052750 
14.057640 17.525110 -26.422960 13.015539 -52.068783 -14.112160 -15.808337 9.761139 6.672504 14.895127 1.647656 -68.810541 3.597186 5.985848 7.816420 -0.752636 4.229251 2.889252 0.875100 1.164770 0.481370 18.265154 -9.452580 1.914655 -11.479970 0.508007 6.198617 6.652507 -5.150546 5.083413 -0.741324 -5.122578 2.585975 0.925610 0.317860 0.060710 -3.970996 -0.743661 -8.709888 1.001866 6.621213 9.255954 -11.368223 12.257504 15.655730 0.078151 -11.126723 -16.544684 -20.821118 18.929095 16.589106 -3.578610 12.593950 -17.315570 -7.796464 -26.123262 8.616678 -21.630149 -8.141462 -9.523177 48.743309 -18.123736 -12.104976 -3.936580 3.129857 0.151510 0.261640 0.094290 0.390800 9.100691 38.433857 7.186954 14.175052 36.419674 -0.431859 -21.846401 10.085692 -5.260250 2.291281 -1.730041 -0.209140 0.585320 -0.287390 -0.000640 
14.043760 17.481620 -26.380680 9.786608 -50.706978 -11.340625 -15.751576 9.832566 6.563476 12.767075 0.221478 -69.222917 5.369034 5.622931 10.288653 -0.585877 3.756437 2.922632 1.053920 1.381460 0.536560 18.297852 -9.613656 1.984896 -9.670696 -0.097462 6.238648 6.656485 -5.209597 5.985844 -0.801010 -5.141199 2.497294 0.931890 0.113970 0.179720 -4.148849 -0.519685 -8.580630 2.770324 6.479346 9.548418 -10.706721 11.627991 15.457761 -0.137716 -11.024730 -15.791595 -20.648138 18.753912 17.480995 -2.360870 12.538900 -16.337260 -9.335956 -24.506303 8.059820 -24.594870 -9.837864 -9.013586 48.495010 -21.511202 -13.270905 -3.722124 3.476796 0.049630 0.167960 0.176610 0.405590 10.746959 36.469897 7.702211 17.420880 34.595054 -0.769527 -23.003527 13.448991 -6.022680 2.309288 -1.979850 0.059470 0.263890 -0.410640 0.066990 
14.032450 17.422770 -26.303040 8.088090 -51.292428 -9.592690 -15.660272 9.971159 6.304744 12.305624 0.076365 -66.126982 5.797106 5.206653 8.914097 -0.516681 3.485330 3.096412 0.861600 1.152630 0.385340 18.313442 -9.952260 2.059224 -9.117314 -0.251108 5.522962 6.788182 -5.458906 7.339677 -0.722235 -5.112244 2.588118 0.771490 0.211040 0.131900 -4.456638 0.033728 -8.428410 4.793904 6.648839 9.448994 -12.284762 11.480101 13.293044 0.924353 -10.722603 -15.138658 -19.854813 19.039242 18.834975 -1.503200 13.112560 -13.682640 -11.760863 -21.308039 7.333834 -25.946797 -6.798962 -9.681332 47.425317 -33.124519 -16.863862 -3.602793 3.251882 0.047270 0.187380 0.100340 0.403390 10.969689 33.393034 8.428506 25.161905 33.410843 -0.190485 -23.321339 17.378916 -6.631469 2.227766 -1.916153 -0.001830 0.281700 -0.344160 0.087890 
